<?xml version="1.0" standalone="no"?>
<!DOCTYPE svg PUBLIC "-//W3C//DTD SVG 20010904//EN"
 "http://www.w3.org/TR/2001/REC-SVG-20010904/DTD/svg10.dtd">
<svg version="1.0" xmlns="http://www.w3.org/2000/svg"
 width="500.000000pt" height="500.000000pt" viewBox="0 0 500.000000 500.000000"
 preserveAspectRatio="xMidYMid meet">
<metadata>
Created by potrace 1.16, written by Peter Selinger 2001-2019
</metadata>
<g transform="translate(0.000000,500.000000) scale(0.100000,-0.100000)"
fill="#ffffff" stroke="none">
<path d="M2420 4684 c-214 -23 -402 -95 -553 -211 -231 -178 -373 -428 -408
-722 -16 -136 1 -265 53 -412 30 -85 29 -194 -2 -309 -45 -167 -20 -258 95
-350 87 -69 136 -75 250 -32 145 56 202 60 219 16 19 -51 -12 -212 -60 -312
-20 -41 -34 -75 -32 -78 7 -6 194 -62 235 -70 21 -4 44 -11 51 -17 9 -7 12
-210 12 -954 0 -944 0 -944 25 -968 24 -25 27 -25 190 -25 167 0 167 0 196 29
29 29 29 29 29 170 0 141 0 141 140 141 139 0 140 0 169 28 29 26 30 30 33
130 2 63 -1 102 -7 103 -5 0 -70 0 -143 -1 -133 -1 -133 -1 -162 29 -32 31
-37 59 -18 94 22 43 37 46 185 47 78 0 143 3 145 7 2 5 1 54 -2 110 -7 140 -2
137 -188 143 -147 5 -147 5 -150 462 -2 458 -2 458 25 464 129 29 273 75 273
87 0 5 -9 20 -20 34 -31 40 -71 179 -77 269 -5 79 -5 82 19 98 31 20 71 13
199 -35 102 -37 158 -36 218 6 145 100 175 191 127 383 -34 136 -33 196 4 313
47 145 62 260 49 387 -26 261 -123 461 -313 647 -152 149 -318 239 -516 278
-80 17 -232 27 -290 21z m-153 -1070 c15 -11 38 -36 51 -55 22 -31 23 -43 20
-141 -3 -102 -4 -108 -34 -144 -26 -32 -54 -48 -170 -96 -157 -65 -213 -73
-258 -37 -48 38 -56 67 -56 206 0 143 12 184 68 236 49 47 93 57 229 54 105
-2 125 -5 150 -23z m767 14 c53 -16 118 -81 134 -134 15 -50 16 -235 2 -286
-6 -20 -24 -48 -41 -62 -48 -41 -96 -35 -256 29 -196 79 -213 98 -213 252 0
119 16 156 80 190 37 20 58 23 148 23 58 0 123 -6 146 -12z m-492 -535 c32
-38 108 -192 108 -220 0 -53 -29 -68 -140 -71 -110 -4 -155 10 -166 53 -6 26
54 158 103 223 27 37 70 43 95 15z"/>
</g>
</svg>
